<svg xmlns="http://www.w3.org/2000/svg" xmlns:xlink="http://www.w3.org/1999/xlink" width="500" zoomAndPan="magnify" viewBox="0 0 375 374.999991" height="500" preserveAspectRatio="xMidYMid meet" version="1.0"><defs><clipPath id="270dcef9f7"><path d="M 150.183594 161.285156 L 225.183594 161.285156 L 225.183594 213.785156 L 150.183594 213.785156 Z M 150.183594 161.285156 " clip-rule="nonzero"/></clipPath><clipPath id="0a30d12ba0"><path d="M 133 133 L 242 133 L 242 242 L 133 242 Z M 133 133 " clip-rule="nonzero"/></clipPath><clipPath id="a403ed541c"><path d="M 133.40625 239.472656 L 239.472656 133.40625 L 241.59375 135.527344 L 135.527344 241.59375 Z M 133.40625 239.472656 " clip-rule="nonzero"/></clipPath><clipPath id="5bd86f288b"><path d="M 133.40625 239.472656 L 239.472656 133.40625 L 241.59375 135.527344 L 135.527344 241.59375 Z M 133.40625 239.472656 " clip-rule="nonzero"/></clipPath></defs><rect x="-37.5" width="450" fill="#e4e4e7" y="-37.499999" height="449.999989" fill-opacity="1"/><g clip-path="url(#270dcef9f7)"><path fill="#fafafa" d="M 220.46875 170.617188 L 203.082031 170.617188 C 203.082031 170.617188 201.5 167.234375 200.328125 164.785156 C 199.277344 162.566406 197.285156 161.285156 194.648438 161.285156 L 179.484375 161.285156 C 176.910156 161.285156 174.917969 162.511719 174.101562 164.785156 L 171.640625 170.617188 L 167.191406 170.617188 L 167.191406 170.035156 C 167.191406 168.75 165.902344 167.703125 164.265625 167.703125 L 158.996094 167.703125 C 157.355469 167.703125 156.066406 168.75 156.066406 170.035156 L 156.066406 170.617188 L 154.894531 170.617188 C 152.320312 170.617188 150.210938 172.71875 150.210938 175.285156 L 150.210938 209.117188 C 150.210938 211.683594 152.320312 213.785156 154.894531 213.785156 L 220.46875 213.785156 C 223.046875 213.785156 225.152344 211.683594 225.152344 209.117188 L 225.152344 175.285156 C 225.152344 172.71875 223.046875 170.617188 220.46875 170.617188 Z M 157.238281 170.035156 C 157.238281 169.394531 158.058594 168.867188 158.996094 168.867188 L 164.265625 168.867188 C 165.199219 168.867188 166.019531 169.394531 166.019531 170.035156 L 166.019531 170.617188 L 157.238281 170.617188 Z M 220.46875 211.453125 L 154.894531 211.453125 C 153.609375 211.453125 152.554688 210.402344 152.554688 209.117188 L 152.554688 182.285156 L 170.703125 182.285156 C 171.054688 182.285156 171.289062 182.050781 171.289062 181.703125 C 171.289062 181.351562 171.054688 181.117188 170.703125 181.117188 L 152.554688 181.117188 L 152.554688 175.285156 C 152.554688 174 153.609375 172.953125 154.894531 172.953125 L 173.164062 172.953125 L 176.265625 165.71875 L 176.265625 165.601562 C 176.734375 164.316406 177.789062 163.675781 179.484375 163.675781 L 194.707031 163.675781 C 196.347656 163.675781 197.578125 164.433594 198.222656 165.835938 C 199.394531 168.226562 201.617188 172.953125 201.617188 172.953125 L 220.46875 172.953125 C 221.757812 172.953125 222.8125 174 222.8125 175.285156 L 222.8125 181.117188 L 204.660156 181.117188 C 204.3125 181.117188 204.078125 181.351562 204.078125 181.703125 C 204.078125 182.050781 204.3125 182.285156 204.660156 182.285156 L 222.8125 182.285156 L 222.8125 209.117188 C 222.8125 210.402344 221.757812 211.453125 220.46875 211.453125 Z M 220.46875 211.453125 " fill-opacity="1" fill-rule="nonzero"/></g><path fill="#fafafa" d="M 187.683594 176.453125 C 178.960938 176.453125 171.875 183.511719 171.875 192.203125 C 171.875 200.894531 178.960938 207.953125 187.683594 207.953125 C 196.40625 207.953125 203.492188 200.894531 203.492188 192.203125 C 203.492188 183.511719 196.40625 176.453125 187.683594 176.453125 Z M 187.683594 205.617188 C 180.246094 205.617188 174.21875 199.609375 174.21875 192.203125 C 174.21875 184.792969 180.246094 178.785156 187.683594 178.785156 C 195.117188 178.785156 201.148438 184.792969 201.148438 192.203125 C 201.148438 199.609375 195.117188 205.617188 187.683594 205.617188 Z M 187.683594 205.617188 " fill-opacity="1" fill-rule="nonzero"/><path fill="#fafafa" d="M 187.683594 182.867188 C 182.53125 182.867188 178.316406 187.066406 178.316406 192.203125 C 178.316406 192.550781 178.550781 192.785156 178.902344 192.785156 C 179.253906 192.785156 179.484375 192.550781 179.484375 192.203125 C 179.484375 187.710938 183.175781 184.035156 187.683594 184.035156 C 188.035156 184.035156 188.269531 183.800781 188.269531 183.453125 C 188.269531 183.101562 188.035156 182.867188 187.683594 182.867188 Z M 187.683594 182.867188 " fill-opacity="1" fill-rule="nonzero"/><path fill="#fafafa" d="M 179.484375 194.535156 C 179.484375 194.695312 179.429688 194.832031 179.316406 194.949219 C 179.199219 195.0625 179.0625 195.117188 178.902344 195.117188 C 178.738281 195.117188 178.601562 195.0625 178.488281 194.949219 C 178.371094 194.832031 178.316406 194.695312 178.316406 194.535156 C 178.316406 194.375 178.371094 194.234375 178.488281 194.121094 C 178.601562 194.007812 178.738281 193.953125 178.902344 193.953125 C 179.0625 193.953125 179.199219 194.007812 179.316406 194.121094 C 179.429688 194.234375 179.484375 194.375 179.484375 194.535156 Z M 179.484375 194.535156 " fill-opacity="1" fill-rule="nonzero"/><path fill="#fafafa" d="M 218.128906 176.976562 C 218.128906 177.132812 218.097656 177.28125 218.039062 177.421875 C 217.980469 177.566406 217.894531 177.691406 217.785156 177.800781 C 217.675781 177.910156 217.546875 177.996094 217.40625 178.054688 C 217.261719 178.113281 217.113281 178.144531 216.957031 178.144531 C 216.800781 178.144531 216.652344 178.113281 216.507812 178.054688 C 216.367188 177.996094 216.238281 177.910156 216.128906 177.800781 C 216.019531 177.691406 215.933594 177.566406 215.875 177.421875 C 215.816406 177.28125 215.785156 177.132812 215.785156 176.976562 C 215.785156 176.820312 215.816406 176.671875 215.875 176.53125 C 215.933594 176.386719 216.019531 176.261719 216.128906 176.152344 C 216.238281 176.042969 216.367188 175.957031 216.507812 175.898438 C 216.652344 175.839844 216.800781 175.808594 216.957031 175.808594 C 217.113281 175.808594 217.261719 175.839844 217.40625 175.898438 C 217.546875 175.957031 217.675781 176.042969 217.785156 176.152344 C 217.894531 176.261719 217.980469 176.386719 218.039062 176.53125 C 218.097656 176.671875 218.128906 176.820312 218.128906 176.976562 Z M 218.128906 176.976562 " fill-opacity="1" fill-rule="nonzero"/><g clip-path="url(#0a30d12ba0)"><g clip-path="url(#a403ed541c)"><g clip-path="url(#5bd86f288b)"><path fill="#fafafa" d="M 239.476562 133.429688 L 133.414062 239.488281 L 135.511719 241.589844 L 241.574219 135.527344 L 239.476562 133.429688 " fill-opacity="1" fill-rule="nonzero"/></g></g></g></svg>