<svg xmlns="http://www.w3.org/2000/svg" xmlns:xlink="http://www.w3.org/1999/xlink" width="500" zoomAndPan="magnify" viewBox="0 0 375 374.999991" height="500" preserveAspectRatio="xMidYMid meet" version="1.0"><defs><clipPath id="b6b1f1d48d"><path d="M 148 112.5 L 227 112.5 L 227 192 L 148 192 Z M 148 112.5 " clip-rule="nonzero"/></clipPath><clipPath id="028132d71b"><path d="M 115.03125 198 L 259 198 L 259 262 L 115.03125 262 Z M 115.03125 198 " clip-rule="nonzero"/></clipPath></defs><rect x="-37.5" width="450" fill="#e4e4e7" y="-37.499999" height="449.999989" fill-opacity="1"/><g clip-path="url(#b6b1f1d48d)"><path fill="#fafafa" d="M 226.242188 151.898438 C 226.242188 153.179688 226.179688 154.457031 226.054688 155.734375 C 225.929688 157.007812 225.742188 158.273438 225.492188 159.53125 C 225.242188 160.789062 224.929688 162.03125 224.558594 163.257812 C 224.1875 164.484375 223.757812 165.691406 223.265625 166.875 C 222.777344 168.058594 222.230469 169.214844 221.625 170.347656 C 221.023438 171.476562 220.367188 172.574219 219.652344 173.640625 C 218.941406 174.707031 218.179688 175.734375 217.367188 176.726562 C 216.558594 177.714844 215.699219 178.664062 214.792969 179.570312 C 213.886719 180.476562 212.941406 181.339844 211.949219 182.152344 C 210.960938 182.964844 209.933594 183.726562 208.871094 184.4375 C 207.804688 185.152344 206.707031 185.808594 205.578125 186.414062 C 204.449219 187.019531 203.296875 187.566406 202.113281 188.054688 C 200.929688 188.546875 199.726562 188.976562 198.5 189.351562 C 197.277344 189.722656 196.035156 190.03125 194.78125 190.28125 C 193.523438 190.53125 192.257812 190.722656 190.984375 190.847656 C 189.710938 190.972656 188.433594 191.035156 187.152344 191.035156 C 185.875 191.035156 184.597656 190.972656 183.324219 190.847656 C 182.046875 190.722656 180.785156 190.53125 179.527344 190.28125 C 178.273438 190.03125 177.03125 189.722656 175.808594 189.351562 C 174.582031 188.976562 173.378906 188.546875 172.195312 188.054688 C 171.011719 187.566406 169.855469 187.019531 168.726562 186.414062 C 167.597656 185.808594 166.503906 185.152344 165.4375 184.4375 C 164.375 183.726562 163.347656 182.964844 162.355469 182.152344 C 161.367188 181.339844 160.421875 180.476562 159.515625 179.570312 C 158.609375 178.664062 157.75 177.714844 156.9375 176.726562 C 156.125 175.734375 155.363281 174.707031 154.652344 173.640625 C 153.941406 172.574219 153.285156 171.476562 152.683594 170.347656 C 152.078125 169.214844 151.53125 168.058594 151.042969 166.875 C 150.550781 165.691406 150.121094 164.484375 149.75 163.257812 C 149.378906 162.03125 149.066406 160.789062 148.816406 159.53125 C 148.566406 158.273438 148.378906 157.007812 148.253906 155.734375 C 148.128906 154.457031 148.066406 153.179688 148.066406 151.898438 C 148.066406 150.613281 148.128906 149.335938 148.253906 148.0625 C 148.378906 146.785156 148.566406 145.519531 148.816406 144.261719 C 149.066406 143.003906 149.378906 141.761719 149.75 140.535156 C 150.121094 139.308594 150.550781 138.105469 151.042969 136.917969 C 151.53125 135.734375 152.078125 134.578125 152.683594 133.449219 C 153.285156 132.316406 153.941406 131.21875 154.652344 130.152344 C 155.363281 129.085938 156.125 128.058594 156.9375 127.066406 C 157.75 126.078125 158.609375 125.128906 159.515625 124.222656 C 160.421875 123.316406 161.367188 122.457031 162.355469 121.644531 C 163.347656 120.828125 164.375 120.066406 165.4375 119.355469 C 166.503906 118.640625 167.597656 117.984375 168.726562 117.378906 C 169.855469 116.777344 171.011719 116.226562 172.195312 115.738281 C 173.378906 115.246094 174.582031 114.816406 175.808594 114.445312 C 177.03125 114.070312 178.273438 113.761719 179.527344 113.511719 C 180.785156 113.261719 182.046875 113.074219 183.324219 112.945312 C 184.597656 112.820312 185.875 112.757812 187.152344 112.757812 C 188.433594 112.757812 189.710938 112.820312 190.984375 112.945312 C 192.257812 113.074219 193.523438 113.261719 194.78125 113.511719 C 196.035156 113.761719 197.277344 114.070312 198.5 114.445312 C 199.726562 114.816406 200.929688 115.246094 202.113281 115.738281 C 203.296875 116.226562 204.449219 116.777344 205.578125 117.378906 C 206.707031 117.984375 207.804688 118.640625 208.871094 119.355469 C 209.933594 120.066406 210.960938 120.828125 211.949219 121.644531 C 212.941406 122.457031 213.886719 123.316406 214.792969 124.222656 C 215.699219 125.128906 216.558594 126.078125 217.367188 127.066406 C 218.179688 128.058594 218.941406 129.085938 219.652344 130.152344 C 220.367188 131.21875 221.023438 132.316406 221.625 133.449219 C 222.230469 134.578125 222.777344 135.734375 223.265625 136.917969 C 223.757812 138.105469 224.1875 139.308594 224.558594 140.535156 C 224.929688 141.761719 225.242188 143.003906 225.492188 144.261719 C 225.742188 145.519531 225.929688 146.785156 226.054688 148.0625 C 226.179688 149.335938 226.242188 150.613281 226.242188 151.898438 Z M 226.242188 151.898438 " fill-opacity="1" fill-rule="nonzero"/></g><g clip-path="url(#028132d71b)"><path fill="#fafafa" d="M 134.621094 261.734375 L 239.683594 261.734375 C 240.449219 261.726562 241.207031 261.671875 241.964844 261.574219 C 242.71875 261.472656 243.46875 261.328125 244.207031 261.140625 C 244.945312 260.949219 245.671875 260.71875 246.382812 260.441406 C 247.09375 260.164062 247.785156 259.84375 248.457031 259.484375 C 249.132812 259.125 249.78125 258.726562 250.40625 258.289062 C 251.03125 257.851562 251.628906 257.378906 252.195312 256.867188 C 252.765625 256.359375 253.300781 255.816406 253.804688 255.242188 C 254.308594 254.667969 254.777344 254.066406 255.207031 253.4375 C 255.640625 252.808594 256.03125 252.152344 256.382812 251.476562 C 256.738281 250.800781 257.050781 250.101562 257.320312 249.390625 C 257.589844 248.675781 257.816406 247.945312 257.996094 247.203125 C 258.179688 246.460938 258.316406 245.710938 258.410156 244.953125 C 258.503906 244.195312 258.550781 243.433594 258.550781 242.671875 C 258.554688 241.90625 258.507812 241.144531 258.417969 240.386719 C 258.328125 239.628906 258.195312 238.878906 258.015625 238.136719 C 257.835938 237.394531 257.613281 236.664062 257.34375 235.949219 C 256.804688 234.578125 256.210938 233.226562 255.570312 231.902344 C 254.925781 230.574219 254.234375 229.273438 253.496094 228 C 252.757812 226.722656 251.972656 225.476562 251.136719 224.261719 C 250.304688 223.046875 249.429688 221.863281 248.507812 220.714844 C 247.585938 219.5625 246.621094 218.449219 245.617188 217.371094 C 244.613281 216.292969 243.570312 215.253906 242.488281 214.253906 C 241.40625 213.253906 240.285156 212.296875 239.132812 211.382812 C 237.976562 210.464844 236.792969 209.59375 235.574219 208.765625 C 234.351562 207.941406 233.105469 207.160156 231.828125 206.425781 C 230.550781 205.695312 229.246094 205.007812 227.917969 204.375 C 226.589844 203.738281 225.238281 203.152344 223.867188 202.621094 C 222.492188 202.085938 221.101562 201.605469 219.695312 201.175781 C 218.285156 200.746094 216.863281 200.367188 215.425781 200.042969 C 213.988281 199.722656 212.542969 199.453125 211.085938 199.238281 C 209.628906 199.023438 208.164062 198.863281 206.695312 198.757812 C 205.226562 198.65625 203.757812 198.605469 202.285156 198.609375 L 172.023438 198.609375 C 170.550781 198.609375 169.082031 198.664062 167.613281 198.773438 C 166.148438 198.882812 164.6875 199.046875 163.230469 199.265625 C 161.777344 199.484375 160.332031 199.753906 158.894531 200.082031 C 157.460938 200.40625 156.039062 200.785156 154.632812 201.21875 C 153.226562 201.648438 151.835938 202.132812 150.464844 202.667969 C 149.09375 203.203125 147.746094 203.789062 146.417969 204.425781 C 145.09375 205.0625 143.789062 205.746094 142.515625 206.480469 C 141.238281 207.214844 139.988281 207.992188 138.773438 208.820312 C 137.554688 209.644531 136.367188 210.515625 135.214844 211.429688 C 134.058594 212.347656 132.941406 213.300781 131.859375 214.300781 C 130.777344 215.296875 129.734375 216.335938 128.726562 217.410156 C 127.722656 218.488281 126.757812 219.597656 125.835938 220.746094 C 124.914062 221.894531 124.035156 223.074219 123.199219 224.289062 C 122.363281 225.5 121.574219 226.742188 120.832031 228.015625 C 120.089844 229.289062 119.398438 230.585938 118.75 231.910156 C 118.105469 233.234375 117.507812 234.578125 116.964844 235.949219 C 116.695312 236.664062 116.472656 237.394531 116.292969 238.136719 C 116.113281 238.878906 115.976562 239.628906 115.886719 240.386719 C 115.796875 241.144531 115.753906 241.90625 115.753906 242.671875 C 115.757812 243.433594 115.804688 244.195312 115.898438 244.953125 C 115.988281 245.710938 116.125 246.460938 116.308594 247.203125 C 116.492188 247.945312 116.71875 248.675781 116.988281 249.390625 C 117.257812 250.105469 117.570312 250.800781 117.921875 251.476562 C 118.273438 252.15625 118.667969 252.808594 119.097656 253.4375 C 119.53125 254.066406 119.996094 254.671875 120.5 255.246094 C 121.003906 255.816406 121.542969 256.359375 122.109375 256.871094 C 122.679688 257.378906 123.273438 257.851562 123.902344 258.289062 C 124.527344 258.726562 125.175781 259.125 125.847656 259.488281 C 126.519531 259.847656 127.214844 260.164062 127.925781 260.441406 C 128.636719 260.71875 129.359375 260.949219 130.101562 261.140625 C 130.839844 261.328125 131.585938 261.472656 132.34375 261.574219 C 133.101562 261.675781 133.859375 261.726562 134.621094 261.734375 Z M 134.621094 261.734375 " fill-opacity="1" fill-rule="nonzero"/></g></svg>