<svg xmlns="http://www.w3.org/2000/svg" xmlns:xlink="http://www.w3.org/1999/xlink" width="500" zoomAndPan="magnify" viewBox="0 0 375 374.999991" height="500" preserveAspectRatio="xMidYMid meet" version="1.0"><defs><g/></defs><g fill="#222222" fill-opacity="1"><g transform="translate(212.765616, 117.970995)"><g><path d="M -160.296875 130.683594 C -162.875 135.835938 -165.128906 140.984375 -166.414062 146.136719 C -167.703125 151.285156 -168.667969 156.757812 -168.667969 162.550781 C -168.667969 170.921875 -167.058594 178.96875 -163.839844 186.691406 C -160.621094 194.417969 -156.113281 201.5 -150.320312 207.617188 C -144.527344 213.730469 -137.121094 218.558594 -128.433594 222.421875 C -119.742188 226.285156 -109.761719 228.214844 -98.820312 228.214844 L -51.824219 228.214844 C -47.316406 228.214844 -43.132812 227.25 -39.914062 225.640625 C -36.371094 224.03125 -33.476562 222.101562 -31.222656 219.527344 C -28.648438 216.949219 -27.039062 214.375 -25.75 211.476562 C -24.464844 208.257812 -24.140625 205.363281 -24.140625 202.464844 L -24.140625 25.75 C -24.140625 22.855469 -24.464844 19.957031 -25.75 16.738281 C -27.039062 13.519531 -28.648438 10.945312 -31.222656 8.367188 C -33.476562 5.792969 -36.371094 3.539062 -39.914062 1.929688 C -43.132812 0.320312 -47.316406 -0.320312 -51.824219 -0.320312 L -105.898438 -0.320312 C -118.777344 -0.320312 -130.363281 1.609375 -140.664062 5.472656 C -150.964844 9.335938 -159.65625 14.484375 -166.738281 21.246094 C -173.816406 28.003906 -178.96875 35.730469 -182.832031 44.742188 C -186.371094 53.753906 -188.300781 63.410156 -188.300781 73.710938 C -188.300781 84.011719 -186.050781 93.992188 -182.1875 103.648438 C -178.003906 113.304688 -171.886719 121.351562 -163.515625 128.433594 C -162.875 128.753906 -162.550781 129.074219 -161.90625 129.398438 C -161.265625 129.71875 -160.941406 130.042969 -160.296875 130.683594 Z M -98.496094 147.421875 L -82.402344 147.421875 C -81.757812 147.421875 -80.792969 147.746094 -79.828125 148.710938 C -78.539062 149.355469 -78.21875 150.640625 -78.21875 152.574219 L -78.21875 172.207031 C -78.21875 173.816406 -78.539062 175.105469 -79.828125 176.070312 C -80.792969 176.714844 -81.757812 177.359375 -82.402344 177.359375 L -98.496094 177.359375 C -103.324219 177.359375 -107.1875 176.070312 -109.761719 173.496094 C -112.335938 170.921875 -113.949219 167.378906 -113.949219 162.550781 C -113.949219 157.722656 -112.335938 153.859375 -109.761719 151.285156 C -106.867188 148.710938 -103.003906 147.421875 -98.496094 147.421875 Z M -78.21875 56.652344 L -78.21875 92.382812 C -78.21875 93.992188 -78.539062 95.277344 -79.828125 96.242188 C -80.792969 96.886719 -81.757812 97.53125 -82.402344 97.53125 L -105.898438 97.53125 C -124.570312 97.53125 -133.902344 89.804688 -133.902344 74.675781 C -133.902344 59.226562 -124.570312 51.5 -105.898438 51.5 L -82.402344 51.5 C -81.757812 51.5 -80.792969 51.824219 -79.828125 52.789062 C -78.539062 53.433594 -78.21875 54.71875 -78.21875 56.652344 Z M -78.21875 56.652344 "/></g></g></g><g fill="#222222" fill-opacity="1"><g transform="translate(162.234003, 257.028711)"><g><path d="M 160.296875 -130.683594 C 162.875 -135.835938 165.128906 -140.984375 166.414062 -146.136719 C 167.703125 -151.285156 168.667969 -156.757812 168.667969 -162.550781 C 168.667969 -170.921875 167.058594 -178.96875 163.839844 -186.691406 C 160.621094 -194.417969 156.113281 -201.5 150.320312 -207.617188 C 144.527344 -213.730469 137.121094 -218.558594 128.433594 -222.421875 C 119.742188 -226.285156 109.761719 -228.214844 98.820312 -228.214844 L 51.824219 -228.214844 C 47.316406 -228.214844 43.132812 -227.25 39.914062 -225.640625 C 36.371094 -224.03125 33.476562 -222.101562 31.222656 -219.527344 C 28.648438 -216.949219 27.039062 -214.375 25.75 -211.476562 C 24.464844 -208.257812 24.140625 -205.363281 24.140625 -202.464844 L 24.140625 -25.75 C 24.140625 -22.855469 24.464844 -19.957031 25.75 -16.738281 C 27.039062 -13.519531 28.648438 -10.945312 31.222656 -8.367188 C 33.476562 -5.792969 36.371094 -3.539062 39.914062 -1.929688 C 43.132812 -0.320312 47.316406 0.320312 51.824219 0.320312 L 105.898438 0.320312 C 118.777344 0.320312 130.363281 -1.609375 140.664062 -5.472656 C 150.964844 -9.335938 159.65625 -14.484375 166.738281 -21.246094 C 173.816406 -28.003906 178.96875 -35.730469 182.832031 -44.742188 C 186.371094 -53.753906 188.300781 -63.410156 188.300781 -73.710938 C 188.300781 -84.011719 186.050781 -93.992188 182.1875 -103.648438 C 178.003906 -113.304688 171.886719 -121.351562 163.515625 -128.433594 C 162.875 -128.753906 162.550781 -129.074219 161.90625 -129.398438 C 161.265625 -129.71875 160.941406 -130.042969 160.296875 -130.683594 Z M 98.496094 -147.421875 L 82.402344 -147.421875 C 81.757812 -147.421875 80.792969 -147.746094 79.828125 -148.710938 C 78.539062 -149.355469 78.21875 -150.640625 78.21875 -152.574219 L 78.21875 -172.207031 C 78.21875 -173.816406 78.539062 -175.105469 79.828125 -176.070312 C 80.792969 -176.714844 81.757812 -177.359375 82.402344 -177.359375 L 98.496094 -177.359375 C 103.324219 -177.359375 107.1875 -176.070312 109.761719 -173.496094 C 112.335938 -170.921875 113.949219 -167.378906 113.949219 -162.550781 C 113.949219 -157.722656 112.335938 -153.859375 109.761719 -151.285156 C 106.867188 -148.710938 103.003906 -147.421875 98.496094 -147.421875 Z M 78.21875 -56.652344 L 78.21875 -92.382812 C 78.21875 -93.992188 78.539062 -95.277344 79.828125 -96.242188 C 80.792969 -96.886719 81.757812 -97.53125 82.402344 -97.53125 L 105.898438 -97.53125 C 124.570312 -97.53125 133.902344 -89.804688 133.902344 -74.675781 C 133.902344 -59.226562 124.570312 -51.5 105.898438 -51.5 L 82.402344 -51.5 C 81.757812 -51.5 80.792969 -51.824219 79.828125 -52.789062 C 78.539062 -53.433594 78.21875 -54.71875 78.21875 -56.652344 Z M 78.21875 -56.652344 "/></g></g></g></svg>