<svg xmlns="http://www.w3.org/2000/svg" xmlns:xlink="http://www.w3.org/1999/xlink" width="500" zoomAndPan="magnify" viewBox="0 0 375 374.999991" height="500" preserveAspectRatio="xMidYMid meet" version="1.0"><defs><clipPath id="7ec931760d"><path d="M 75 0 L 300 0 C 341.421875 0 375 33.578125 375 75 L 375 300 C 375 341.421875 341.421875 375 300 375 L 75 375 C 33.578125 375 0 341.421875 0 300 L 0 75 C 0 33.578125 33.578125 0 75 0 Z M 75 0 " clip-rule="nonzero"/></clipPath><clipPath id="4d54a5f613"><path d="M 118.703125 25.019531 L 329 25.019531 L 329 302 L 118.703125 302 Z M 118.703125 25.019531 " clip-rule="nonzero"/></clipPath><clipPath id="c00b4555a6"><path d="M 46 73 L 256.289062 73 L 256.289062 349.976562 L 46 349.976562 Z M 46 73 " clip-rule="nonzero"/></clipPath><clipPath id="3eb1af5539"><path d="M 118.695312 25.015625 L 165.125 25.015625 L 165.125 170.1875 L 118.695312 170.1875 Z M 118.695312 25.015625 " clip-rule="nonzero"/></clipPath><clipPath id="2b7a2f279b"><path d="M 209.851562 206 L 256.285156 206 L 256.285156 349.976562 L 209.851562 349.976562 Z M 209.851562 206 " clip-rule="nonzero"/></clipPath></defs><g clip-path="url(#7ec931760d)"><rect x="-37.5" width="450" fill="#222222" y="-37.499999" height="449.999989" fill-opacity="1"/></g><g clip-path="url(#4d54a5f613)"><path fill="#ffffff" d="M 118.703125 71.386719 C 154.828125 71.355469 190.949219 71.28125 227.0625 71.457031 C 245.9375 71.550781 258.417969 89.070312 252.433594 106.433594 C 248.703125 117.273438 238.816406 124.058594 225.792969 124.101562 C 190.09375 124.234375 154.394531 124.175781 118.699219 124.1875 L 118.699219 170.488281 C 157.972656 170.539062 197.25 170.589844 236.523438 170.683594 C 258.519531 170.734375 275.519531 183.050781 280.945312 202.589844 C 286.542969 222.761719 278.28125 241.804688 259.125 253.515625 L 259.125 301.917969 C 284.945312 298.414062 313.765625 273.710938 323.050781 245.402344 C 337.460938 201.449219 323.800781 166.089844 287.644531 138.269531 C 288.015625 137.480469 288.328125 136.644531 288.785156 135.894531 C 303.378906 111.652344 304.296875 86.710938 290.453125 62.226562 C 276.183594 36.996094 253.503906 25.0625 224.554688 25.046875 C 189.273438 25.042969 153.984375 25.042969 118.703125 25.042969 Z M 118.703125 71.386719 " fill-opacity="1" fill-rule="nonzero"/></g><g clip-path="url(#c00b4555a6)"><path fill="#ffffff" d="M 256.289062 303.609375 C 220.167969 303.644531 184.046875 303.714844 147.929688 303.539062 C 129.054688 303.449219 116.578125 285.925781 122.558594 268.5625 C 126.292969 257.722656 136.175781 250.9375 149.203125 250.894531 C 184.898438 250.761719 220.597656 250.820312 256.296875 250.808594 L 256.296875 204.507812 C 217.019531 204.457031 177.746094 204.40625 138.46875 204.3125 C 116.472656 204.261719 99.476562 191.949219 94.046875 172.40625 C 88.449219 152.234375 96.710938 133.191406 115.867188 121.484375 L 115.867188 73.078125 C 90.046875 76.585938 61.230469 101.285156 51.945312 129.59375 C 37.53125 173.546875 51.195312 208.90625 87.351562 236.730469 C 86.980469 237.515625 86.664062 238.351562 86.210938 239.101562 C 71.613281 263.34375 70.695312 288.285156 84.542969 312.769531 C 98.8125 338 121.492188 349.933594 150.441406 349.949219 C 185.722656 349.953125 221.007812 349.953125 256.289062 349.953125 Z M 256.289062 303.609375 " fill-opacity="1" fill-rule="nonzero"/></g><g clip-path="url(#3eb1af5539)"><path fill="#ffffff" d="M 165.125 170.1875 L 118.695312 170.1875 L 118.695312 25.015625 L 165.125 25.015625 Z M 165.125 170.1875 " fill-opacity="1" fill-rule="nonzero"/></g><g clip-path="url(#2b7a2f279b)"><path fill="#ffffff" d="M 256.285156 349.976562 L 209.851562 349.976562 L 209.851562 206 L 256.285156 206 Z M 256.285156 349.976562 " fill-opacity="1" fill-rule="nonzero"/></g></svg>