<svg xmlns="http://www.w3.org/2000/svg" xmlns:xlink="http://www.w3.org/1999/xlink" width="500" zoomAndPan="magnify" viewBox="0 0 375 374.999991" height="500" preserveAspectRatio="xMidYMid meet" version="1.0"><defs><g/><clipPath id="685d3711e3"><path d="M 75 0 L 300 0 C 341.421875 0 375 33.578125 375 75 L 375 300 C 375 341.421875 341.421875 375 300 375 L 75 375 C 33.578125 375 0 341.421875 0 300 L 0 75 C 0 33.578125 33.578125 0 75 0 " clip-rule="nonzero"/></clipPath><linearGradient x1="0" gradientTransform="matrix(0.732422, 0, 0, 0.732422, 0.0000045, 0)" y1="0" x2="511.999973" gradientUnits="userSpaceOnUse" y2="0" id="3a6b61f5a6"><stop stop-opacity="1" stop-color="rgb(33.299255%, 33.299255%, 33.299255%)" offset="0"/><stop stop-opacity="1" stop-color="rgb(33.14209%, 33.14209%, 33.14209%)" offset="0.015625"/><stop stop-opacity="1" stop-color="rgb(32.829285%, 32.829285%, 32.829285%)" offset="0.03125"/><stop stop-opacity="1" stop-color="rgb(32.518005%, 32.518005%, 32.518005%)" offset="0.046875"/><stop stop-opacity="1" stop-color="rgb(32.2052%, 32.2052%, 32.2052%)" offset="0.0625"/><stop stop-opacity="1" stop-color="rgb(31.892395%, 31.892395%, 31.892395%)" offset="0.078125"/><stop stop-opacity="1" stop-color="rgb(31.57959%, 31.57959%, 31.57959%)" offset="0.09375"/><stop stop-opacity="1" stop-color="rgb(31.266785%, 31.266785%, 31.266785%)" offset="0.109375"/><stop stop-opacity="1" stop-color="rgb(30.955505%, 30.955505%, 30.955505%)" offset="0.125"/><stop stop-opacity="1" stop-color="rgb(30.6427%, 30.6427%, 30.6427%)" offset="0.140625"/><stop stop-opacity="1" stop-color="rgb(30.329895%, 30.329895%, 30.329895%)" offset="0.15625"/><stop stop-opacity="1" stop-color="rgb(30.01709%, 30.01709%, 30.01709%)" offset="0.171875"/><stop stop-opacity="1" stop-color="rgb(29.704285%, 29.704285%, 29.704285%)" offset="0.1875"/><stop stop-opacity="1" stop-color="rgb(29.393005%, 29.393005%, 29.393005%)" offset="0.203125"/><stop stop-opacity="1" stop-color="rgb(29.0802%, 29.0802%, 29.0802%)" offset="0.21875"/><stop stop-opacity="1" stop-color="rgb(28.767395%, 28.767395%, 28.767395%)" offset="0.234375"/><stop stop-opacity="1" stop-color="rgb(28.45459%, 28.45459%, 28.45459%)" offset="0.25"/><stop stop-opacity="1" stop-color="rgb(28.141785%, 28.141785%, 28.141785%)" offset="0.265625"/><stop stop-opacity="1" stop-color="rgb(27.830505%, 27.830505%, 27.830505%)" offset="0.28125"/><stop stop-opacity="1" stop-color="rgb(27.5177%, 27.5177%, 27.5177%)" offset="0.296875"/><stop stop-opacity="1" stop-color="rgb(27.204895%, 27.204895%, 27.204895%)" offset="0.3125"/><stop stop-opacity="1" stop-color="rgb(26.89209%, 26.89209%, 26.89209%)" offset="0.328125"/><stop stop-opacity="1" stop-color="rgb(26.579285%, 26.579285%, 26.579285%)" offset="0.34375"/><stop stop-opacity="1" stop-color="rgb(26.268005%, 26.268005%, 26.268005%)" offset="0.359375"/><stop stop-opacity="1" stop-color="rgb(25.9552%, 25.9552%, 25.9552%)" offset="0.375"/><stop stop-opacity="1" stop-color="rgb(25.642395%, 25.642395%, 25.642395%)" offset="0.390625"/><stop stop-opacity="1" stop-color="rgb(25.32959%, 25.32959%, 25.32959%)" offset="0.40625"/><stop stop-opacity="1" stop-color="rgb(25.016785%, 25.016785%, 25.016785%)" offset="0.421875"/><stop stop-opacity="1" stop-color="rgb(24.705505%, 24.705505%, 24.705505%)" offset="0.4375"/><stop stop-opacity="1" stop-color="rgb(24.3927%, 24.3927%, 24.3927%)" offset="0.453125"/><stop stop-opacity="1" stop-color="rgb(24.079895%, 24.079895%, 24.079895%)" offset="0.46875"/><stop stop-opacity="1" stop-color="rgb(23.76709%, 23.76709%, 23.76709%)" offset="0.484375"/><stop stop-opacity="1" stop-color="rgb(23.454285%, 23.454285%, 23.454285%)" offset="0.5"/><stop stop-opacity="1" stop-color="rgb(23.143005%, 23.143005%, 23.143005%)" offset="0.515625"/><stop stop-opacity="1" stop-color="rgb(22.8302%, 22.8302%, 22.8302%)" offset="0.53125"/><stop stop-opacity="1" stop-color="rgb(22.517395%, 22.517395%, 22.517395%)" offset="0.546875"/><stop stop-opacity="1" stop-color="rgb(22.20459%, 22.20459%, 22.20459%)" offset="0.5625"/><stop stop-opacity="1" stop-color="rgb(21.891785%, 21.891785%, 21.891785%)" offset="0.578125"/><stop stop-opacity="1" stop-color="rgb(21.580505%, 21.580505%, 21.580505%)" offset="0.59375"/><stop stop-opacity="1" stop-color="rgb(21.2677%, 21.2677%, 21.2677%)" offset="0.609375"/><stop stop-opacity="1" stop-color="rgb(20.954895%, 20.954895%, 20.954895%)" offset="0.625"/><stop stop-opacity="1" stop-color="rgb(20.64209%, 20.64209%, 20.64209%)" offset="0.640625"/><stop stop-opacity="1" stop-color="rgb(20.329285%, 20.329285%, 20.329285%)" offset="0.65625"/><stop stop-opacity="1" stop-color="rgb(20.018005%, 20.018005%, 20.018005%)" offset="0.671875"/><stop stop-opacity="1" stop-color="rgb(19.7052%, 19.7052%, 19.7052%)" offset="0.6875"/><stop stop-opacity="1" stop-color="rgb(19.392395%, 19.392395%, 19.392395%)" offset="0.703125"/><stop stop-opacity="1" stop-color="rgb(19.07959%, 19.07959%, 19.07959%)" offset="0.71875"/><stop stop-opacity="1" stop-color="rgb(18.766785%, 18.766785%, 18.766785%)" offset="0.734375"/><stop stop-opacity="1" stop-color="rgb(18.455505%, 18.455505%, 18.455505%)" offset="0.75"/><stop stop-opacity="1" stop-color="rgb(18.1427%, 18.1427%, 18.1427%)" offset="0.765625"/><stop stop-opacity="1" stop-color="rgb(17.829895%, 17.829895%, 17.829895%)" offset="0.78125"/><stop stop-opacity="1" stop-color="rgb(17.51709%, 17.51709%, 17.51709%)" offset="0.796875"/><stop stop-opacity="1" stop-color="rgb(17.204285%, 17.204285%, 17.204285%)" offset="0.8125"/><stop stop-opacity="1" stop-color="rgb(16.893005%, 16.893005%, 16.893005%)" offset="0.828125"/><stop stop-opacity="1" stop-color="rgb(16.5802%, 16.5802%, 16.5802%)" offset="0.84375"/><stop stop-opacity="1" stop-color="rgb(16.267395%, 16.267395%, 16.267395%)" offset="0.859375"/><stop stop-opacity="1" stop-color="rgb(15.95459%, 15.95459%, 15.95459%)" offset="0.875"/><stop stop-opacity="1" stop-color="rgb(15.641785%, 15.641785%, 15.641785%)" offset="0.890625"/><stop stop-opacity="1" stop-color="rgb(15.330505%, 15.330505%, 15.330505%)" offset="0.90625"/><stop stop-opacity="1" stop-color="rgb(15.0177%, 15.0177%, 15.0177%)" offset="0.921875"/><stop stop-opacity="1" stop-color="rgb(14.704895%, 14.704895%, 14.704895%)" offset="0.9375"/><stop stop-opacity="1" stop-color="rgb(14.39209%, 14.39209%, 14.39209%)" offset="0.953125"/><stop stop-opacity="1" stop-color="rgb(14.079285%, 14.079285%, 14.079285%)" offset="0.96875"/><stop stop-opacity="1" stop-color="rgb(13.768005%, 13.768005%, 13.768005%)" offset="0.984375"/><stop stop-opacity="1" stop-color="rgb(13.4552%, 13.4552%, 13.4552%)" offset="1"/></linearGradient></defs><g clip-path="url(#685d3711e3)"><rect x="-37.5" fill="url(#3a6b61f5a6)" width="450" y="-37.499999" height="449.999989"/></g><g fill="#ffffff" fill-opacity="1"><g transform="translate(212.765616, 117.970995)"><g><path d="M -160.296875 130.683594 C -162.875 135.835938 -165.128906 140.984375 -166.414062 146.136719 C -167.703125 151.285156 -168.667969 156.757812 -168.667969 162.550781 C -168.667969 170.921875 -167.058594 178.96875 -163.839844 186.691406 C -160.621094 194.417969 -156.113281 201.5 -150.320312 207.617188 C -144.527344 213.730469 -137.121094 218.558594 -128.433594 222.421875 C -119.742188 226.285156 -109.761719 228.214844 -98.820312 228.214844 L -51.824219 228.214844 C -47.316406 228.214844 -43.132812 227.25 -39.914062 225.640625 C -36.371094 224.03125 -33.476562 222.101562 -31.222656 219.527344 C -28.648438 216.949219 -27.039062 214.375 -25.75 211.476562 C -24.464844 208.257812 -24.140625 205.363281 -24.140625 202.464844 L -24.140625 25.75 C -24.140625 22.855469 -24.464844 19.957031 -25.75 16.738281 C -27.039062 13.519531 -28.648438 10.945312 -31.222656 8.367188 C -33.476562 5.792969 -36.371094 3.539062 -39.914062 1.929688 C -43.132812 0.320312 -47.316406 -0.320312 -51.824219 -0.320312 L -105.898438 -0.320312 C -118.777344 -0.320312 -130.363281 1.609375 -140.664062 5.472656 C -150.964844 9.335938 -159.65625 14.484375 -166.738281 21.246094 C -173.816406 28.003906 -178.96875 35.730469 -182.832031 44.742188 C -186.371094 53.753906 -188.300781 63.410156 -188.300781 73.710938 C -188.300781 84.011719 -186.050781 93.992188 -182.1875 103.648438 C -178.003906 113.304688 -171.886719 121.351562 -163.515625 128.433594 C -162.875 128.753906 -162.550781 129.074219 -161.90625 129.398438 C -161.265625 129.71875 -160.941406 130.042969 -160.296875 130.683594 Z M -98.496094 147.421875 L -82.402344 147.421875 C -81.757812 147.421875 -80.792969 147.746094 -79.828125 148.710938 C -78.539062 149.355469 -78.21875 150.640625 -78.21875 152.574219 L -78.21875 172.207031 C -78.21875 173.816406 -78.539062 175.105469 -79.828125 176.070312 C -80.792969 176.714844 -81.757812 177.359375 -82.402344 177.359375 L -98.496094 177.359375 C -103.324219 177.359375 -107.1875 176.070312 -109.761719 173.496094 C -112.335938 170.921875 -113.949219 167.378906 -113.949219 162.550781 C -113.949219 157.722656 -112.335938 153.859375 -109.761719 151.285156 C -106.867188 148.710938 -103.003906 147.421875 -98.496094 147.421875 Z M -78.21875 56.652344 L -78.21875 92.382812 C -78.21875 93.992188 -78.539062 95.277344 -79.828125 96.242188 C -80.792969 96.886719 -81.757812 97.53125 -82.402344 97.53125 L -105.898438 97.53125 C -124.570312 97.53125 -133.902344 89.804688 -133.902344 74.675781 C -133.902344 59.226562 -124.570312 51.5 -105.898438 51.5 L -82.402344 51.5 C -81.757812 51.5 -80.792969 51.824219 -79.828125 52.789062 C -78.539062 53.433594 -78.21875 54.71875 -78.21875 56.652344 Z M -78.21875 56.652344 "/></g></g></g><g fill="#ffffff" fill-opacity="1"><g transform="translate(162.234003, 257.028711)"><g><path d="M 160.296875 -130.683594 C 162.875 -135.835938 165.128906 -140.984375 166.414062 -146.136719 C 167.703125 -151.285156 168.667969 -156.757812 168.667969 -162.550781 C 168.667969 -170.921875 167.058594 -178.96875 163.839844 -186.691406 C 160.621094 -194.417969 156.113281 -201.5 150.320312 -207.617188 C 144.527344 -213.730469 137.121094 -218.558594 128.433594 -222.421875 C 119.742188 -226.285156 109.761719 -228.214844 98.820312 -228.214844 L 51.824219 -228.214844 C 47.316406 -228.214844 43.132812 -227.25 39.914062 -225.640625 C 36.371094 -224.03125 33.476562 -222.101562 31.222656 -219.527344 C 28.648438 -216.949219 27.039062 -214.375 25.75 -211.476562 C 24.464844 -208.257812 24.140625 -205.363281 24.140625 -202.464844 L 24.140625 -25.75 C 24.140625 -22.855469 24.464844 -19.957031 25.75 -16.738281 C 27.039062 -13.519531 28.648438 -10.945312 31.222656 -8.367188 C 33.476562 -5.792969 36.371094 -3.539062 39.914062 -1.929688 C 43.132812 -0.320312 47.316406 0.320312 51.824219 0.320312 L 105.898438 0.320312 C 118.777344 0.320312 130.363281 -1.609375 140.664062 -5.472656 C 150.964844 -9.335938 159.65625 -14.484375 166.738281 -21.246094 C 173.816406 -28.003906 178.96875 -35.730469 182.832031 -44.742188 C 186.371094 -53.753906 188.300781 -63.410156 188.300781 -73.710938 C 188.300781 -84.011719 186.050781 -93.992188 182.1875 -103.648438 C 178.003906 -113.304688 171.886719 -121.351562 163.515625 -128.433594 C 162.875 -128.753906 162.550781 -129.074219 161.90625 -129.398438 C 161.265625 -129.71875 160.941406 -130.042969 160.296875 -130.683594 Z M 98.496094 -147.421875 L 82.402344 -147.421875 C 81.757812 -147.421875 80.792969 -147.746094 79.828125 -148.710938 C 78.539062 -149.355469 78.21875 -150.640625 78.21875 -152.574219 L 78.21875 -172.207031 C 78.21875 -173.816406 78.539062 -175.105469 79.828125 -176.070312 C 80.792969 -176.714844 81.757812 -177.359375 82.402344 -177.359375 L 98.496094 -177.359375 C 103.324219 -177.359375 107.1875 -176.070312 109.761719 -173.496094 C 112.335938 -170.921875 113.949219 -167.378906 113.949219 -162.550781 C 113.949219 -157.722656 112.335938 -153.859375 109.761719 -151.285156 C 106.867188 -148.710938 103.003906 -147.421875 98.496094 -147.421875 Z M 78.21875 -56.652344 L 78.21875 -92.382812 C 78.21875 -93.992188 78.539062 -95.277344 79.828125 -96.242188 C 80.792969 -96.886719 81.757812 -97.53125 82.402344 -97.53125 L 105.898438 -97.53125 C 124.570312 -97.53125 133.902344 -89.804688 133.902344 -74.675781 C 133.902344 -59.226562 124.570312 -51.5 105.898438 -51.5 L 82.402344 -51.5 C 81.757812 -51.5 80.792969 -51.824219 79.828125 -52.789062 C 78.539062 -53.433594 78.21875 -54.71875 78.21875 -56.652344 Z M 78.21875 -56.652344 "/></g></g></g></svg>