<svg xmlns="http://www.w3.org/2000/svg" xmlns:xlink="http://www.w3.org/1999/xlink" width="500" zoomAndPan="magnify" viewBox="0 0 375 374.999991" height="500" preserveAspectRatio="xMidYMid meet" version="1.0"><defs><clipPath id="fa5ba1160b"><path d="M 108.109375 0 L 351 0 L 351 319.6875 L 108.109375 319.6875 Z M 108.109375 0 " clip-rule="nonzero"/></clipPath><clipPath id="4f567eedf1"><path d="M 24 55.308594 L 266.882812 55.308594 L 266.882812 374.996094 L 24 374.996094 Z M 24 55.308594 " clip-rule="nonzero"/></clipPath><clipPath id="ee4f4e5d39"><path d="M 108.097656 0 L 161.679688 0 L 161.679688 167.519531 L 108.097656 167.519531 Z M 108.097656 0 " clip-rule="nonzero"/></clipPath><clipPath id="238907a41f"><path d="M 213.296875 208.847656 L 266.875 208.847656 L 266.875 374.996094 L 213.296875 374.996094 Z M 213.296875 208.847656 " clip-rule="nonzero"/></clipPath></defs><g clip-path="url(#fa5ba1160b)"><path fill="#222222" d="M 108.109375 53.507812 C 149.796875 53.46875 191.480469 53.386719 233.15625 53.589844 C 254.9375 53.695312 269.335938 73.914062 262.433594 93.949219 C 258.125 106.460938 246.71875 114.289062 231.691406 114.339844 C 190.496094 114.492188 149.300781 114.425781 108.101562 114.4375 L 108.101562 167.867188 C 153.425781 167.925781 198.75 167.988281 244.074219 168.09375 C 269.457031 168.152344 289.074219 182.363281 295.335938 204.914062 C 301.792969 228.191406 292.261719 250.167969 270.15625 263.679688 L 270.15625 319.535156 C 299.953125 315.492188 333.207031 286.988281 343.921875 254.316406 C 360.554688 203.597656 344.785156 162.792969 303.066406 130.6875 C 303.492188 129.777344 303.855469 128.816406 304.382812 127.949219 C 321.222656 99.972656 322.285156 71.191406 306.304688 42.933594 C 289.839844 13.824219 263.667969 0.046875 230.261719 0.0351562 C 189.546875 0.0273438 148.824219 0.0273438 108.109375 0.0273438 Z M 108.109375 53.507812 " fill-opacity="1" fill-rule="nonzero"/></g><g clip-path="url(#4f567eedf1)"><path fill="#222222" d="M 266.882812 321.488281 C 225.199219 321.527344 183.515625 321.609375 141.839844 321.40625 C 120.054688 321.300781 105.65625 301.082031 112.558594 281.046875 C 116.867188 268.535156 128.273438 260.707031 143.304688 260.65625 C 184.5 260.503906 225.695312 260.574219 266.890625 260.558594 L 266.890625 207.128906 C 221.566406 207.070312 176.242188 207.007812 130.921875 206.902344 C 105.539062 206.84375 85.921875 192.632812 79.65625 170.082031 C 73.199219 146.804688 82.734375 124.828125 104.839844 111.316406 L 104.839844 55.460938 C 75.042969 59.503906 41.785156 88.007812 31.070312 120.679688 C 14.441406 171.398438 30.207031 212.203125 71.929688 244.308594 C 71.5 245.21875 71.140625 246.179688 70.613281 247.046875 C 53.769531 275.023438 52.710938 303.804688 68.6875 332.0625 C 85.152344 361.171875 111.328125 374.949219 144.734375 374.964844 C 185.445312 374.96875 226.167969 374.96875 266.882812 374.96875 Z M 266.882812 321.488281 " fill-opacity="1" fill-rule="nonzero"/></g><g clip-path="url(#ee4f4e5d39)"><path fill="#222222" d="M 161.679688 167.519531 L 108.097656 167.519531 L 108.097656 -0.00390625 L 161.679688 -0.00390625 Z M 161.679688 167.519531 " fill-opacity="1" fill-rule="nonzero"/></g><g clip-path="url(#238907a41f)"><path fill="#222222" d="M 266.875 374.996094 L 213.296875 374.996094 L 213.296875 208.847656 L 266.875 208.847656 Z M 266.875 374.996094 " fill-opacity="1" fill-rule="nonzero"/></g></svg>